<svg xmlns="http://www.w3.org/2000/svg" width="43.521" height="36.763" viewBox="0 0 43.521 36.763">
  <g id="XMLID_3_" transform="translate(8.096 -0.237)">
    <path id="XMLID_13_" d="M25.065,82.779a9.468,9.468,0,0,0-9.736,3.447,9.41,9.41,0,0,0-9.812-3.485A7.268,7.268,0,0,0,0,90.091c0,8.3,14.285,18.348,14.9,18.779a.806.806,0,0,0,.446.139.839.839,0,0,0,.446-.139c.612-.418,14.9-10.466,14.9-18.779A7.272,7.272,0,0,0,25.065,82.779Z" transform="translate(0 -72.009)" fill="#d2451e"/>
    <path id="XMLID_11_" d="M193,1.292a1.3,1.3,0,0,0,1.3,1.292,11.486,11.486,0,0,1,11.507,11.442,1.3,1.3,0,0,0,2.6,0A14.109,14.109,0,0,0,194.287,0,1.291,1.291,0,0,0,193,1.292Z" transform="matrix(0.259, -0.966, 0.966, 0.259, -58.048, 201.542)" fill="#d2451e"/>
    <path id="XMLID_6_" d="M200.272,45.517a1.3,1.3,0,0,0,2.6,0A9.656,9.656,0,0,0,193.2,35.9a1.292,1.292,0,1,0,0,2.585A7.053,7.053,0,0,1,200.272,45.517Z" transform="translate(-167.446 -31.351)" fill="#d2451e"/>
  </g>
</svg>
