<svg id="Group_4" data-name="Group 4" xmlns="http://www.w3.org/2000/svg" width="70.961" height="66.364" viewBox="0 0 70.961 66.364">
  <path id="Path_3955" data-name="Path 3955" d="M1867.178,804.558a1.332,1.332,0,0,0-.825,1.233v14.36l-16.98,16.983H1839.3a1.333,1.333,0,0,0-1.2,1.921l8.414,17.175c-.179.219-.347.439-.5.648-1.071,1.457-2.008,2.226-2.714,2.226s-1.614-.749-2.7-2.226a1.334,1.334,0,1,0-2.147,1.583c1.044,1.421,2.685,3.31,4.848,3.31s3.817-1.89,4.864-3.313c1.069-1.455,2.008-2.223,2.714-2.223s1.614.749,2.7,2.226c1.047,1.421,2.688,3.31,4.85,3.31s3.817-1.89,4.861-3.313c1.072-1.455,2.011-2.223,2.714-2.223s1.614.749,2.7,2.223a7.874,7.874,0,0,0,3.656,3.12,1.334,1.334,0,1,0,.825-2.537,5.76,5.76,0,0,1-2.331-2.163c-1.046-1.421-2.687-3.31-4.85-3.31s-3.817,1.89-4.861,3.31c-1.071,1.457-2.01,2.226-2.714,2.226s-1.616-.749-2.7-2.226c-1.044-1.421-2.685-3.31-4.848-3.31a4.271,4.271,0,0,0-2.331.744l-7.111-14.51H1901.3l-7,14.286a9.484,9.484,0,0,0-2.912,2.79c-1.071,1.457-2.008,2.226-2.714,2.226s-1.613-.749-2.7-2.226c-1.562-2.125-3.005-3.174-4.543-3.3a4.762,4.762,0,0,0-3.754,1.641,1.334,1.334,0,1,0,1.863,1.91,2.4,2.4,0,0,1,1.672-.892c.478.038,1.316.457,2.616,2.223,1.044,1.421,2.685,3.31,4.848,3.31s3.817-1.89,4.864-3.313c1.069-1.455,2.008-2.223,2.712-2.223s1.614.749,2.7,2.226c1.044,1.421,2.687,3.31,4.848,3.31,2.176,0,3.817-1.89,4.864-3.313a1.334,1.334,0,0,0-2.149-1.58c-1.069,1.457-2.008,2.226-2.714,2.226s-1.613-.749-2.7-2.226a8.2,8.2,0,0,0-3.669-3.12l7.2-14.7a1.333,1.333,0,0,0-1.2-1.921h-2.528l-32.286-32.286A1.334,1.334,0,0,0,1867.178,804.558Zm-.825,32.575h-13.208l13.208-13.21Zm2.669-16.429v-11.7l28.122,28.124h-28.122Z" transform="translate(-1837.968 -804.457)" fill="#316094"/>
  <path id="Path_3956" data-name="Path 3956" d="M1856.314,811.548l-1.071-1.074a1.335,1.335,0,0,0-1.89,1.887l1.074,1.071a1.334,1.334,0,0,0,1.887-1.885Z" transform="translate(-1819.354 -797.472)" fill="#316094"/>
  <path id="Path_3957" data-name="Path 3957" d="M1863.365,818.6l-6.554-6.554a1.334,1.334,0,1,0-1.887,1.885l6.554,6.554a1.334,1.334,0,0,0,1.887-1.885Z" transform="translate(-1817.406 -795.524)" fill="#316094"/>
  <path id="Path_3958" data-name="Path 3958" d="M1844.989,825.833a3.821,3.821,0,1,0,3.821-3.821A3.826,3.826,0,0,0,1844.989,825.833Zm4.973,0a1.153,1.153,0,1,1-1.152-1.154A1.155,1.155,0,0,1,1849.962,825.833Z" transform="translate(-1829.254 -782.665)" fill="#316094"/>
  <path id="Path_3959" data-name="Path 3959" d="M1855.044,822.012a3.821,3.821,0,1,0,3.822,3.821A3.826,3.826,0,0,0,1855.044,822.012Zm0,4.976a1.154,1.154,0,1,1,1.154-1.154A1.156,1.156,0,0,1,1855.044,826.988Z" transform="translate(-1821.515 -782.665)" fill="#316094"/>
  <path id="Path_3960" data-name="Path 3960" d="M1865.1,825.833a3.82,3.82,0,1,0-3.821,3.822A3.825,3.825,0,0,0,1865.1,825.833Zm-4.974,0a1.153,1.153,0,1,1,1.152,1.154A1.157,1.157,0,0,1,1860.125,825.833Z" transform="translate(-1813.776 -782.665)" fill="#316094"/>
  <path id="Path_3961" data-name="Path 3961" d="M1854.682,830.73a1.336,1.336,0,0,0,1.887.06q.172-.161.348-.343a1.335,1.335,0,1,0-1.921-1.854c-.085.09-.168.17-.253.249A1.337,1.337,0,0,0,1854.682,830.73Z" transform="translate(-1817.67 -775)" fill="#316094"/>
  <path id="Path_3962" data-name="Path 3962" d="M1876.706,833.422a1.333,1.333,0,0,0-1.865.285c-1.069,1.455-2.008,2.223-2.714,2.223s-1.613-.749-2.7-2.223c-1.54-2.094-2.961-3.14-4.472-3.293a1.334,1.334,0,1,0-.269,2.654c.47.047,1.307.471,2.591,2.219,1.044,1.421,2.687,3.313,4.848,3.313,2.176,0,3.817-1.892,4.864-3.313A1.333,1.333,0,0,0,1876.706,833.422Z" transform="translate(-1806.29 -772.245)" fill="#316094"/>
  <path id="Path_3963" data-name="Path 3963" d="M1863.308,834.072a1.329,1.329,0,0,0,1.02-.475c.059-.067.117-.135.172-.2a1.334,1.334,0,1,0-1.983-1.784c-.076.085-.155.173-.229.262a1.335,1.335,0,0,0,1.02,2.194Z" transform="translate(-1808.171 -771.294)" fill="#316094"/>
  <path id="Path_3964" data-name="Path 3964" d="M1846.581,838.055a4.091,4.091,0,0,0,2.012.56c2.417,0,4.185-2.4,4.857-3.322,1.072-1.455,2.011-2.226,2.714-2.226s1.614.749,2.7,2.226c1.045,1.421,2.685,3.313,4.848,3.313s3.819-1.892,4.864-3.313c1.069-1.455,2.008-2.226,2.714-2.226s1.614.749,2.7,2.226c1.544,2.1,2.97,3.147,4.487,3.295a4.664,4.664,0,0,0,3.618-1.455,1.335,1.335,0,1,0-1.809-1.963c-.895.827-1.39.78-1.551.762-.473-.045-1.309-.466-2.6-2.219-1.044-1.423-2.685-3.313-4.848-3.313s-3.819,1.892-4.864,3.313c-1.069,1.455-2.008,2.223-2.714,2.223s-1.614-.746-2.7-2.223c-1.046-1.423-2.687-3.313-4.85-3.313s-3.817,1.892-4.861,3.313c-2.046,2.779-2.977,2.261-3.422,2.013a1.333,1.333,0,0,0-1.3,2.329Z" transform="translate(-1828.126 -772.252)" fill="#316094"/>
  <path id="Path_3965" data-name="Path 3965" d="M1847.061,834.2a1.332,1.332,0,0,0,.285-1.865c-.076-.105-.155-.208-.23-.309a1.335,1.335,0,0,0-2.119,1.625c.067.085.133.173.2.264a1.331,1.331,0,0,0,1.865.285Z" transform="translate(-1829.585 -770.876)" fill="#316094"/>
  <path id="Path_3966" data-name="Path 3966" d="M1848.042,835.3c1.983-2.7,2.9-2.266,3.288-2.08a1.334,1.334,0,1,0,1.143-2.412c-3.292-1.56-5.767,1.8-6.58,2.911-1.071,1.455-2.008,2.223-2.714,2.223s-1.614-.749-2.7-2.223a1.333,1.333,0,1,0-2.147,1.58c1.044,1.421,2.685,3.313,4.848,3.313S1846.995,836.717,1848.042,835.3Z" transform="translate(-1837.843 -772.254)" fill="#316094"/>
</svg>
