<svg id="Group_2" data-name="Group 2" xmlns="http://www.w3.org/2000/svg" width="66.431" height="66.429" viewBox="0 0 66.431 66.429">
  <path id="Path_3948" data-name="Path 3948" d="M1830.675,734.3l-3.933,1.439a1.249,1.249,0,1,0,.858,2.347l3.931-1.439a1.249,1.249,0,0,0-.856-2.347Z" transform="translate(-1825.921 -712.269)" fill="#316094"/>
  <path id="Path_3949" data-name="Path 3949" d="M1832.575,733.244l-2.172.8a1.249,1.249,0,0,0,.431,2.421,1.316,1.316,0,0,0,.43-.074l2.169-.8a1.249,1.249,0,1,0-.858-2.347Z" transform="translate(-1821.373 -713.575)" fill="#316094"/>
  <path id="Path_3950" data-name="Path 3950" d="M1852.39,725.932l-1.86.681a1.248,1.248,0,1,0,.859,2.344l1.86-.681a1.248,1.248,0,1,0-.858-2.344Z" transform="translate(-1796.392 -722.652)" fill="#316094"/>
  <path id="Path_3951" data-name="Path 3951" d="M1858.254,724.5l-5.4,1.974a1.25,1.25,0,0,0,.428,2.423,1.208,1.208,0,0,0,.431-.078l5.4-1.974a1.248,1.248,0,1,0-.858-2.344Z" transform="translate(-1793.502 -724.427)" fill="#316094"/>
  <path id="Path_3952" data-name="Path 3952" d="M1862.095,748.319h-2.187V732.854l10.182-3.725a1.248,1.248,0,1,0-.858-2.344l-35.119,12.847a1.249,1.249,0,0,0,.43,2.423,1.23,1.23,0,0,0,.428-.076l8.706-3.185v9.526h-2.186a9.561,9.561,0,0,0-9.552,9.55v20.6a9.561,9.561,0,0,0,9.552,9.55h20.6a9.561,9.561,0,0,0,9.55-9.55v-20.6A9.561,9.561,0,0,0,1862.095,748.319Zm-15.922-10.44,11.238-4.111v14.551h-11.238Zm15.922,47.648h-20.6a7.064,7.064,0,0,1-6.941-5.8h3.3a1.248,1.248,0,1,0,0-2.5h-3.414V759.118h16.106v18.108h-7.991a1.248,1.248,0,0,0,0,2.5h26.483A7.061,7.061,0,0,1,1862.095,785.527Zm4.055-26.409h3v18.108H1853.04V759.118h8.407a1.248,1.248,0,1,0,0-2.5h-26.9a7.064,7.064,0,0,1,6.941-5.807h20.6a7.061,7.061,0,0,1,6.939,5.807h-2.884a1.248,1.248,0,0,0,0,2.5Z" transform="translate(-1818.452 -721.595)" fill="#316094"/>
  <path id="Path_3953" data-name="Path 3953" d="M1845.164,744.037a1.249,1.249,0,0,0-1.249,1.248v2.748a1.249,1.249,0,0,0,2.5,0v-2.748A1.249,1.249,0,0,0,1845.164,744.037Z" transform="translate(-1803.583 -700.084)" fill="#316094"/>
  <path id="Path_3954" data-name="Path 3954" d="M1837.811,749.282a1.247,1.247,0,0,0,1.248-1.248v-2.748a1.248,1.248,0,1,0-2.5,0v2.748A1.247,1.247,0,0,0,1837.811,749.282Z" transform="translate(-1812.712 -700.084)" fill="#316094"/>
</svg>
