<svg xmlns="http://www.w3.org/2000/svg" width="29" height="37" viewBox="0 0 29 37">
  <path id="Path_3794" data-name="Path 3794" d="M27,13.275A13.393,13.393,0,0,0,13.5,0,13.393,13.393,0,0,0,0,13.275a13,13,0,0,0,1.854,6.707h0l9.6,13.868A2.388,2.388,0,0,0,13.5,35a2.359,2.359,0,0,0,2.048-1.149l9.483-13.678a1.392,1.392,0,0,0,.088-.156l.07-.112h0A12.964,12.964,0,0,0,27,13.275ZM13.5,19.688a6.423,6.423,0,1,1,6.53-6.422A6.481,6.481,0,0,1,13.5,19.688Z" transform="translate(1 1)" fill="none" stroke="#3c5daa" stroke-width="2"/>
</svg>
