<svg xmlns="http://www.w3.org/2000/svg" width="62.057" height="75.551" viewBox="0 0 62.057 75.551">
  <g id="Group_5" data-name="Group 5" transform="translate(-4628.476 515.551)">
    <path id="Path_3967" data-name="Path 3967" d="M1966.726,778.339c.182.132.4.3.011.408a3.488,3.488,0,0,1-.867.025c-7.293,0-14.584.009-21.877-.029a1.153,1.153,0,0,0-1.313.914c-2.143,6.294-1.047,12.058,2.75,17.413.374.527.827.482,1.329.482,5.334,0,10.667.02,16-.022.865-.007,1.284.148,1.145,1.1-.127.881.4,2.067-.224,2.582-.526.435-1.661.152-2.526.155-7.8.011-15.6.007-23.4.038a1.673,1.673,0,0,1-1.6-.8c-3.732-5.556-6.263-11.511-6.218-18.343a29.08,29.08,0,0,1,.565-4.523,2.508,2.508,0,0,1,1.955-2.143,52.11,52.11,0,0,1,9.2-2.152c5.376-.787,10.092-1.192,15.23,0C1961.266,774.878,1966.183,778.231,1966.726,778.339Z" transform="translate(2700.045 -1286.805)" fill="none" stroke="#316094" stroke-linecap="round" stroke-linejoin="round" stroke-width="3"/>
    <path id="Path_3968" data-name="Path 3968" d="M1932.261,794.226c.323-.352.749-.206,1.129-.206q25.655-.013,51.311,0c.379,0,.807-.148,1.127.208-.289.018-.576.049-.865.049q-25.917,0-51.839,0C1932.837,794.278,1932.548,794.244,1932.261,794.226Z" transform="translate(2702.936 -1257.455)" fill="none" stroke="#316094" stroke-linecap="round" stroke-linejoin="round" stroke-width="3"/>
    <g id="Ellipse_191" data-name="Ellipse 191" transform="translate(4669 -460)" fill="none" stroke="#316094" stroke-width="3">
      <circle cx="10" cy="10" r="10" stroke="none"/>
      <circle cx="10" cy="10" r="8.5" fill="none"/>
    </g>
    <g id="Ellipse_192" data-name="Ellipse 192" transform="translate(4638 -460)" fill="none" stroke="#316094" stroke-width="3">
      <circle cx="10" cy="10" r="10" stroke="none"/>
      <circle cx="10" cy="10" r="8.5" fill="none"/>
    </g>
    <path id="Path_3981" data-name="Path 3981" d="M1982.54,795.845c0,1.874.024,1.966-1.822,2.454a27.9,27.9,0,0,1-15.434-.572c-.625-.188-.724-.547-.718-1.123.025-2.755,0-5.511.025-8.268,0-.645-.076-.95-.863-.948q-15.341.047-30.684,0c-.747,0-.878.24-.875.919.027,5.224.011,10.447.027,15.669,0,.28-.206.652.207.847a2.3,2.3,0,0,1,1.174-.1q25.608-.01,51.221,0a2.248,2.248,0,0,1,1.172.105c.461-.273.2-.717.2-1.062.024-3.687.016-7.374.016-11.16C1986.191,792.607,1982.538,792.725,1982.54,795.845Zm.273.446a1.227,1.227,0,0,1-.011-.172C1982.818,793.543,1982.824,793.5,1982.813,796.291Zm-.091.771-.021-.018a.729.729,0,0,0,.11-.208l0,.184C1982.809,797.123,1982.775,797.136,1982.722,797.062Z" transform="translate(2702.793 -1268.055)" fill="none" stroke="#316094" stroke-linecap="round" stroke-linejoin="round" stroke-width="3"/>
    <g id="Ellipse_193" data-name="Ellipse 193" transform="translate(4644 -454)" fill="none" stroke="#316094" stroke-width="3">
      <circle cx="4" cy="4" r="4" stroke="none"/>
      <circle cx="4" cy="4" r="2.5" fill="none"/>
    </g>
    <g id="Ellipse_194" data-name="Ellipse 194" transform="translate(4675 -454)" fill="none" stroke="#316094" stroke-width="3">
      <circle cx="4" cy="4" r="4" stroke="none"/>
      <circle cx="4" cy="4" r="2.5" fill="none"/>
    </g>
  </g>
</svg>
