<svg xmlns="http://www.w3.org/2000/svg" width="49.849" height="66.11" viewBox="0 0 49.849 66.11">
  <g id="Group_1" data-name="Group 1" transform="translate(-741 -1122.391)">
    <g id="Group_3690" data-name="Group 3690" transform="translate(741 1122.391)">
      <g id="XMLID_1_" transform="translate(0 26.778)">
        <g id="XMLID_3_">
          <path id="Path_3790" data-name="Path 3790" d="M45.457,63.366a32.537,32.537,0,0,0,4.066-12.139A24.551,24.551,0,0,0,49.8,45.7v-.233h0c-.395-.952-2.862-2.111-8.74-3.03A113.027,113.027,0,0,0,24.5,41.36,113.058,113.058,0,0,0,7.931,42.435c-5.943.926-7.549,2.1-7.912,3.075v.013L0,46.831A31.617,31.617,0,0,0,8.76,69.148c-4.4,1.191-6.636,2.823-6.636,4.875,0,5.277,14.9,6.669,22.783,6.669S47.684,79.3,47.684,74.023c0-2.046-2.234-3.69-6.649-4.875.311-.311.6-.609.868-.9A39.513,39.513,0,0,0,45.457,63.366ZM24.486,43.82C36.1,43.82,44.1,45.141,46.091,46.2c-2,1.062-10,2.383-21.605,2.383S4.882,47.265,2.881,46.2C4.882,45.141,12.878,43.82,24.486,43.82Zm20.744,30.2c0,1.483-7.717,4.215-20.323,4.215s-20.33-2.726-20.33-4.215c0-.6,1.7-1.858,6.384-2.894A22.189,22.189,0,0,0,24.9,76.173a22.167,22.167,0,0,0,13.926-5.044C43.521,72.159,45.23,73.421,45.23,74.023ZM24.9,73.713c-11.816,0-21.573-10.961-22.382-25.043a26.379,26.379,0,0,0,5.406,1.295,113.058,113.058,0,0,0,16.568,1.075,112.964,112.964,0,0,0,16.561-1.075,21.206,21.206,0,0,0,6.261-1.683C46.68,62.59,36.93,73.713,24.9,73.713Z" transform="translate(0 -41.36)" fill="#316094"/>
        </g>
      </g>
      <g id="Group_3687" data-name="Group 3687" transform="translate(12.222 8.203)">
        <path id="Path_3791" data-name="Path 3791" d="M21.514,37.15l-1.476-2.13.738,1.062-.745-1.055c.337-.24,3.2-2.5.583-7.148-3.839-6.8-.6-13.1,2.8-15.208l1.366,2.2C22.129,16.516,20,21.508,22.867,26.6,25.949,32.074,23.327,35.894,21.514,37.15Z" transform="translate(-18.877 -12.67)" fill="#316094"/>
      </g>
      <g id="Group_3688" data-name="Group 3688" transform="translate(20.773)">
        <path id="Path_3792" data-name="Path 3792" d="M34.723,24.48l-1.476-2.13.738,1.062-.745-1.055c.337-.24,3.2-2.5.583-7.148C29.984,8.4,33.221,2.111,36.614,0L37.98,2.2C35.332,3.846,33.2,8.838,36.07,13.933,39.152,19.4,36.536,23.217,34.723,24.48Z" transform="translate(-32.085)" fill="#316094"/>
      </g>
      <g id="Group_3689" data-name="Group 3689" transform="translate(29.327 7.776)">
        <path id="Path_3793" data-name="Path 3793" d="M47.934,36.49l-1.476-2.13.738,1.062-.745-1.055c.337-.24,3.2-2.5.583-7.148-3.839-6.8-.6-13.1,2.8-15.208l1.366,2.2c-2.648,1.644-4.778,6.636-1.91,11.732C52.362,31.414,49.747,35.234,47.934,36.49Z" transform="translate(-45.297 -12.01)" fill="#316094"/>
      </g>
    </g>
  </g>
</svg>
