<svg xmlns="http://www.w3.org/2000/svg" width="26.784" height="35.467" viewBox="0 0 26.784 35.467">
  <g id="Group_3692" data-name="Group 3692" transform="translate(-740.85 -1122.184)">
    <g id="Group_3690" data-name="Group 3690" transform="translate(741 1122.391)">
      <g id="XMLID_1_" transform="translate(0 14.221)">
        <g id="XMLID_3_">
          <path id="Path_3790" data-name="Path 3790" d="M24.141,53.047A17.28,17.28,0,0,0,26.3,46.6a13.039,13.039,0,0,0,.148-2.936V43.54h0c-.21-.505-1.52-1.121-4.642-1.609a60.026,60.026,0,0,0-8.8-.571,60.043,60.043,0,0,0-8.8.571C1.056,42.422.2,43.048.01,43.564v.007L0,44.265A16.791,16.791,0,0,0,4.652,56.118c-2.338.633-3.524,1.5-3.524,2.589,0,2.8,7.915,3.542,12.1,3.542s12.1-.739,12.1-3.542c0-1.087-1.186-1.96-3.531-2.589.165-.165.32-.323.461-.478A20.984,20.984,0,0,0,24.141,53.047ZM13,42.667c6.169,0,10.415.7,11.474,1.265C23.416,44.5,19.169,45.2,13,45.2S2.593,44.5,1.53,43.932C2.593,43.368,6.839,42.667,13,42.667Zm11.017,16.04c0,.787-4.1,2.238-10.793,2.238s-10.8-1.448-10.8-2.238c0-.32.9-.987,3.39-1.537a11.784,11.784,0,0,0,7.4,2.679,11.773,11.773,0,0,0,7.4-2.679C23.113,57.717,24.021,58.387,24.021,58.707Zm-10.8-.165c-6.275,0-11.457-5.821-11.887-13.3a14.01,14.01,0,0,0,2.871.688,60.043,60.043,0,0,0,8.8.571,59.993,59.993,0,0,0,8.8-.571,11.262,11.262,0,0,0,3.325-.894C24.791,52.635,19.613,58.542,13.224,58.542Z" transform="translate(0 -41.36)" fill="#316094" stroke="#316094" stroke-width="0.3"/>
        </g>
      </g>
      <g id="Group_3687" data-name="Group 3687" transform="translate(6.491 4.357)">
        <path id="Path_3791" data-name="Path 3791" d="M20.277,25.671l-.784-1.131.392.564-.4-.56c.179-.127,1.7-1.327.309-3.8a6.009,6.009,0,0,1,1.485-8.077l.726,1.169A4.688,4.688,0,0,0,21,20.07C22.633,22.975,21.24,25,20.277,25.671Z" transform="translate(-18.877 -12.67)" fill="#316094" stroke="#316094" stroke-width="0.3"/>
      </g>
      <g id="Group_3688" data-name="Group 3688" transform="translate(11.032)">
        <path id="Path_3792" data-name="Path 3792" d="M33.486,13,32.7,11.87l.392.564-.4-.56c.179-.127,1.7-1.327.309-3.8A6.008,6.008,0,0,1,34.49,0l.726,1.169A4.684,4.684,0,0,0,34.2,7.4C35.838,10.3,34.449,12.33,33.486,13Z" transform="translate(-32.085)" fill="#316094" stroke="#316094" stroke-width="0.3"/>
      </g>
      <g id="Group_3689" data-name="Group 3689" transform="translate(15.575 4.13)">
        <path id="Path_3793" data-name="Path 3793" d="M46.7,25.011l-.784-1.131.392.564-.4-.56c.179-.127,1.7-1.327.309-3.8A6.009,6.009,0,0,1,47.7,12.01l.726,1.169a4.688,4.688,0,0,0-1.014,6.23C49.049,22.315,47.66,24.344,46.7,25.011Z" transform="translate(-45.297 -12.01)" fill="#316094" stroke="#316094" stroke-width="0.3"/>
      </g>
    </g>
  </g>
</svg>
