<svg xmlns="http://www.w3.org/2000/svg" width="55.83" height="54.211" viewBox="0 0 55.83 54.211">
  <g id="XMLID_1_" transform="translate(0.25 0.258)">
    <path id="XMLID_16_" d="M6.655,9.852a.388.388,0,0,0-.438-.341c-.357.049-.649.081-.859.114a2.251,2.251,0,0,0-.486.1.4.4,0,0,0-.308.47.414.414,0,0,0,.389.308.122.122,0,0,0,.081-.016s.47-.1,1.265-.195c.016,0,.016-.016.032-.016A.381.381,0,0,0,6.655,9.852Z" transform="translate(2.831 5.772)" fill="#316094" stroke="#316094" stroke-width="0.5"/>
    <path id="XMLID_15_" d="M28.23,21.87c-.162.13-.308.259-.47.389a.376.376,0,0,0-.065.551.4.4,0,0,0,.308.146.387.387,0,0,0,.227-.081.016.016,0,0,0,.016-.016,6.285,6.285,0,0,0,.5-.422,16.542,16.542,0,0,0,1.508-1.508.391.391,0,0,0-.584-.519,10.337,10.337,0,0,1-.924.957A3.771,3.771,0,0,1,28.23,21.87Z" transform="translate(16.819 12.302)" fill="#316094" stroke="#316094" stroke-width="0.5"/>
    <path id="XMLID_14_" d="M15.6,13.732a.391.391,0,0,0,.551,0,.392.392,0,0,0,0-.568c-.259-.276-.551-.519-.827-.778l-.535-.438c-.259-.195-.5-.405-.778-.6a.4.4,0,0,0-.454.649c.422.292.827.632,1.232.973l.535.486C15.42,13.57,15.5,13.634,15.6,13.732Z" transform="translate(8.18 6.84)" fill="#316094" stroke="#316094" stroke-width="0.5"/>
    <path id="XMLID_13_" d="M17.164,16.574a.389.389,0,0,0,.357.227.69.69,0,0,0,.178-.032.4.4,0,0,0,.178-.535,17.8,17.8,0,0,0-.924-1.638c-.162-.259-.324-.519-.486-.762l-.032-.032a.393.393,0,0,0-.616.486c.211.308.405.632.616.957.178.308.357.632.535.957C17.034,16.331,17.1,16.444,17.164,16.574Z" transform="translate(9.625 8.29)" fill="#316094" stroke="#316094" stroke-width="0.5"/>
    <path id="XMLID_12_" d="M20.94,22.374a.327.327,0,0,0,.178.049.356.356,0,0,0,.276-.114.423.423,0,0,0,0-.568c-.146-.146-.308-.292-.454-.454-.178-.195-.357-.389-.535-.6-.259-.308-.519-.616-.762-.957a.394.394,0,0,0-.632.47,21.1,21.1,0,0,0,1.395,1.67c.146.146.276.292.422.438A.706.706,0,0,1,20.94,22.374Z" transform="translate(11.572 11.872)" fill="#316094" stroke="#316094" stroke-width="0.5"/>
    <path id="XMLID_11_" d="M18.894,19.873a.382.382,0,0,0,.13-.032.1.1,0,0,0,.065-.016.385.385,0,0,0,.146-.535c-.081-.13-.146-.276-.227-.405q-.268-.486-.535-1.022c-.162-.324-.308-.632-.454-.973a.392.392,0,0,0-.713.324c.373.827.762,1.622,1.184,2.351a.406.406,0,0,0,.065.114A.364.364,0,0,0,18.894,19.873Z" transform="translate(10.556 10.102)" fill="#316094" stroke="#316094" stroke-width="0.5"/>
    <path id="XMLID_10_" d="M10.111,10.393h.049a.387.387,0,0,0,.389-.341.413.413,0,0,0-.341-.454L9.122,9.5c-.162-.016-.341-.032-.519-.032Q8.019,9.42,7.435,9.42h0a.421.421,0,0,0-.405.389.409.409,0,0,0,.389.405q.584,0,1.168.049l.535.049C9.462,10.328,9.787,10.36,10.111,10.393Z" transform="translate(4.296 5.719)" fill="#316094" stroke="#316094" stroke-width="0.5"/>
    <path id="XMLID_9_" d="M30.019,20.091a.357.357,0,0,0,.211.065.382.382,0,0,0,.13-.032.349.349,0,0,0,.195-.146c.243-.373.47-.762.7-1.151a.392.392,0,0,0-.681-.389c-.065.114-.146.227-.211.341-.146.259-.308.519-.47.762A.435.435,0,0,0,30.019,20.091Z" transform="translate(18.209 11.066)" fill="#316094" stroke="#316094" stroke-width="0.5"/>
    <path id="XMLID_5_" d="M16.344.113a.821.821,0,0,0-.771-.032L.418,7.973A.818.818,0,0,0,0,8.68V52.256a.789.789,0,0,0,.386.675.69.69,0,0,0,.4.113.793.793,0,0,0,.37-.1l15.155-7.892a.774.774,0,0,0,.418-.691V16.476a.411.411,0,0,0,.209.161A16.547,16.547,0,0,1,19.3,17.5V45.023a.774.774,0,0,0,.418.691l15.155,7.892a.746.746,0,0,0,.37.1.69.69,0,0,0,.4-.113.789.789,0,0,0,.386-.675V36.68a8.653,8.653,0,0,0,1.029.354.2.2,0,0,0,.1.016.4.4,0,0,0,.386-.289.389.389,0,0,0-.273-.482,7.148,7.148,0,0,1-1.237-.45V9.323a.774.774,0,0,0-.418-.691L20.458.74a.779.779,0,0,0-.771.032.789.789,0,0,0-.386.675V16.669a18.992,18.992,0,0,0-2.154-.772.4.4,0,0,0-.434.161V.788A.741.741,0,0,0,16.344.113ZM15.155,43.9l-1.768.916-.53.273L10.3,46.421l-.53.273L7.312,47.98l-.321.177-2.62,1.35-.289.145-2.507,1.3V9.162L6.862,6.414l.209-.129,8.084-4.2ZM20.876,2.733l2.041,1.061.53.273L26,5.4l.53.273,2.443,1.27.53.273,4.966,2.588V35.266c-.032.032-.064.048-.08.1a.392.392,0,0,0,.08.5V51.613l-2.041-1.061-.53-.273L29.49,49.025l-.53-.273-2.443-1.27-.53-.273-2.555-1.334L22.9,45.6,20.86,44.54V2.733Z" transform="translate(0)" fill="#316094" stroke="#316094" stroke-width="0.5"/>
    <path id="XMLID_2_" d="M23.92,8.679V52.25a.788.788,0,0,0,.389.675.775.775,0,0,0,.405.112.758.758,0,0,0,.373-.1l8.74-4.5.178-.1,2.692-1.4.47-.241,3.211-1.655a.773.773,0,0,0,.422-.691V.788a.788.788,0,0,0-.389-.675.835.835,0,0,0-.778-.032L24.342,7.972A.817.817,0,0,0,23.92,8.679ZM39.211,43.893l-2.059,1.061-.535.273-2.578,1.334-.535.273L31.039,48.1l-.535.273L28.071,49.63l-.535.273-2.059,1.061V37.271a9.26,9.26,0,0,0,2.059-.45l.535-.193c.016,0,.016,0,.032-.016a.4.4,0,0,0,.211-.514.351.351,0,0,0-.243-.209.405.405,0,0,0-.276,0l-.243.1a7.858,7.858,0,0,1-2.059.5V9.161L27.552,8.1l.422-.209L30.52,6.574l.535-.273,2.465-1.27.535-.273,2.578-1.334.535-.273,2.059-1.061v41.8Z" transform="translate(14.53 0)" fill="#316094" stroke="#316094" stroke-width="0.5"/>
  </g>
</svg>
