<svg xmlns="http://www.w3.org/2000/svg" width="69.917" height="57.769" viewBox="0 0 69.917 57.769">
  <g id="XMLID_1_" transform="translate(0.25 0.25)">
    <path id="XMLID_11_" d="M18.174,0A1.458,1.458,0,0,0,16.71,1.474V55.8a1.469,1.469,0,0,0,1.464,1.474h6.074A1.485,1.485,0,0,0,25.731,55.8V1.474A1.473,1.473,0,0,0,24.248,0Zm4.61,54.321H19.657V2.93h3.127Z" transform="translate(13.497 0)" fill="#316094" stroke="#fff" stroke-width="0.5"/>
    <path id="XMLID_8_" d="M45.595,23.616l5.152-4.548a1.476,1.476,0,0,0,0-2.193l-5.152-4.548a1.5,1.5,0,0,0-.976-.377H23.992a1.473,1.473,0,0,0-1.482,1.474V22.5a1.473,1.473,0,0,0,1.482,1.474H44.619A1.487,1.487,0,0,0,45.595,23.616ZM25.457,14.9h18.6l3.489,3.074-3.489,3.074h-18.6Z" transform="translate(18.182 9.53)" fill="#316094" stroke="#fff" stroke-width="0.5"/>
    <path id="XMLID_5_" d="M23.992,3.708A1.485,1.485,0,0,0,22.51,5.182v9.077a1.458,1.458,0,0,0,1.482,1.456H44.619a1.487,1.487,0,0,0,.976-.36l5.152-4.548a1.476,1.476,0,0,0,0-2.193L45.595,4.067a1.5,1.5,0,0,0-.976-.377H23.992Zm1.464,9.077V6.638h18.6l3.489,3.074-3.489,3.074Z" transform="translate(18.182 2.943)" fill="#316094" stroke="#fff" stroke-width="0.5"/>
    <path id="XMLID_2_" d="M5.658,15.356a1.487,1.487,0,0,0,.976.36H27.261a1.47,1.47,0,0,0,1.482-1.456v-9.1A1.485,1.485,0,0,0,27.261,3.69H6.634a1.416,1.416,0,0,0-.976.377L.488,8.615a1.476,1.476,0,0,0,0,2.193ZM25.8,6.638v6.148H7.195L3.688,9.712,7.177,6.638Z" transform="translate(0 2.943)" fill="#316094" stroke="#fff" stroke-width="0.5"/>
  </g>
</svg>
