<svg xmlns="http://www.w3.org/2000/svg" width="39.807" height="46.327" viewBox="0 0 39.807 46.327">
  <g id="XMLID_1_" transform="translate(0 -0.008)">
    <path id="XMLID_5_" d="M24.732,24.8a1.294,1.294,0,0,0,.54.116,1.263,1.263,0,0,0,.81-.289l13.282-11.2a1.236,1.236,0,0,0,.443-.964,1.264,1.264,0,0,0-.443-.964L26.082.3A1.27,1.27,0,0,0,24,1.265V4.773H1.253A1.222,1.222,0,0,0,0,6.007V18.9a1.251,1.251,0,0,0,1.253,1.253H24v3.508A1.231,1.231,0,0,0,24.732,24.8ZM2.506,17.65V7.279H25.253a1.251,1.251,0,0,0,1.253-1.253V3.964l10.063,8.5-10.063,8.5V18.9a1.251,1.251,0,0,0-1.253-1.253Z" transform="translate(0 0)" fill="#316094"/>
    <path id="XMLID_2_" d="M.443,24.548l13.282,11.2a1.263,1.263,0,0,0,.81.289,1.208,1.208,0,0,0,.52-.116,1.273,1.273,0,0,0,.733-1.137V31.276H38.554a1.251,1.251,0,0,0,1.253-1.253v-12.9a1.251,1.251,0,0,0-1.253-1.253H15.788V12.365a1.27,1.27,0,0,0-2.082-.964L.424,22.6A1.357,1.357,0,0,0,0,23.584,1.264,1.264,0,0,0,.443,24.548Zm12.839-9.465v2.063A1.251,1.251,0,0,0,14.535,18.4H37.282V28.77H14.535a1.251,1.251,0,0,0-1.253,1.253v2.063l-10.063-8.5Z" transform="translate(0 10.298)" fill="#316094"/>
  </g>
</svg>
