<svg xmlns="http://www.w3.org/2000/svg" width="37.2" height="35.2" viewBox="0 0 37.2 35.2">
  <g id="XMLID_1_" transform="translate(0.1 0.1)">
    <path id="XMLID_20_" d="M6.1,28.864A1.035,1.035,0,0,1,5.058,29.9H3.953a1.035,1.035,0,0,1-1.037-1.037v-2.3H1.732a1.136,1.136,0,0,1-.282-.034v2.323a2.5,2.5,0,0,0,2.5,2.5H5.058a2.512,2.512,0,0,0,2.5-2.5v-2.3H6.1v2.312Z" transform="translate(0.185 3.035)" fill="#316094" stroke="#316094" stroke-width="0.2"/>
    <path id="XMLID_19_" d="M31.706,26.583v2.9a1.035,1.035,0,0,1-1.037,1.037H29.563a1.035,1.035,0,0,1-1.037-1.037v-2.9H27.06v2.9a2.512,2.512,0,0,0,2.5,2.5h1.105a2.5,2.5,0,0,0,2.5-2.5v-3.1a1.947,1.947,0,0,1-.846.2Z" transform="translate(2.769 3.016)" fill="#316094" stroke="#316094" stroke-width="0.2"/>
    <path id="XMLID_14_" d="M2.913,25.2V17.2a1.013,1.013,0,0,1,.951-1.06H33.4a1.006,1.006,0,0,1,.951,1.06V25.2h.608a1.88,1.88,0,0,1,.829.2V17.2a2.462,2.462,0,0,0-2.4-2.526h-.608V10.96a2.385,2.385,0,0,0,1.073.237A1.967,1.967,0,0,0,35.989,9.4V6.326a1.967,1.967,0,0,0-2.134-1.793,2.507,2.507,0,0,0-1.073.237V2.954A2.742,2.742,0,0,0,30.327,0H6.927A2.749,2.749,0,0,0,4.472,2.954v1.77a2.727,2.727,0,0,0-1.017-.192A2.035,2.035,0,0,0,1.21,6.326V9.4A2.035,2.035,0,0,0,3.455,11.2a2.685,2.685,0,0,0,1.017-.192V14.67H3.864a2.469,2.469,0,0,0-2.4,2.526v8.028a2.313,2.313,0,0,1,.276-.034H2.913ZM33.191,6.326c0-.1.254-.316.686-.316s.686.226.686.316V9.4c0,.1-.254.316-.686.316s-.686-.226-.686-.316ZM5.91,2.954c0-.8.464-1.488,1.017-1.488H30.338c.553,0,1.017.677,1.017,1.488V14.67H5.91ZM4.251,9.4c-.011.079-.288.327-.8.327a.919.919,0,0,1-.807-.316V6.326C2.659,6.247,2.935,6,3.455,6a.919.919,0,0,1,.807.316V9.4Z" transform="translate(0.154)" fill="#316094" stroke="#316094" stroke-width="0.2"/>
    <path id="XMLID_11_" d="M35.14,22.35H1.882a1.1,1.1,0,0,0-.277.034A1.893,1.893,0,0,0,0,24.256v.925a1.9,1.9,0,0,0,1.594,1.883,2.318,2.318,0,0,0,.277.034H35.118a1.883,1.883,0,0,0,.83-.2A1.919,1.919,0,0,0,37,25.18v-.925a1.919,1.919,0,0,0-1.052-1.714A1.86,1.86,0,0,0,35.14,22.35Zm.819,2.83a.837.837,0,0,1-.83.846H1.882a.837.837,0,0,1-.83-.846v-.925a.837.837,0,0,1,.83-.846H35.14a.837.837,0,0,1,.83.846v.925Z" transform="translate(0 2.579)" fill="#316094" stroke="#316094" stroke-width="0.2"/>
    <path id="XMLID_8_" d="M28.425,3.22H8.771A1.689,1.689,0,0,0,7.08,4.911v5.751a1.689,1.689,0,0,0,1.691,1.691H28.437a1.689,1.689,0,0,0,1.691-1.691V4.911A1.713,1.713,0,0,0,28.425,3.22Zm.958,7.442a.958.958,0,0,1-.958.958H8.771a.958.958,0,0,1-.958-.958V4.911a.958.958,0,0,1,.958-.958H28.437a.958.958,0,0,1,.958.958v5.751Z" transform="translate(0.53 0.411)" fill="#316094" stroke="#316094" stroke-width="0.2"/>
    <path id="XMLID_5_" d="M8.836,16.38a2.086,2.086,0,1,0,2.086,2.086A2.089,2.089,0,0,0,8.836,16.38Zm0,3.428a1.353,1.353,0,1,1,1.353-1.353A1.357,1.357,0,0,1,8.836,19.808Z" transform="translate(0.706 1.883)" fill="#316094" stroke="#316094" stroke-width="0.2"/>
    <path id="XMLID_2_" d="M26.226,16.38a2.086,2.086,0,1,0,2.086,2.086A2.089,2.089,0,0,0,26.226,16.38Zm0,3.428a1.353,1.353,0,1,1,1.353-1.353A1.357,1.357,0,0,1,26.226,19.808Z" transform="translate(2.524 1.883)" fill="#316094" stroke="#316094" stroke-width="0.2"/>
  </g>
</svg>
