<svg xmlns="http://www.w3.org/2000/svg" width="300" height="89" viewBox="0 0 300 89">
  <g id="Group_512" data-name="Group 512" transform="translate(0 0.051)">
    <g id="Group_515" data-name="Group 515" transform="translate(0 -0.051)">
      <g id="Group_513" data-name="Group 513">
        <g id="Group_512-2" data-name="Group 512">
          <path id="Path_300" data-name="Path 300" d="M109.455,242.963A66,66,0,0,1,58,241.66c-31.468-14.418-45.6,17.756-45.6,17.756S25.6,253,46.181,258.294C66.657,263.587,92.9,257.486,109.455,242.963Z" transform="translate(-9.178 -175.891)" fill="#e5e4e4" opacity="0.3"/>
          <path id="Path_301" data-name="Path 301" d="M155.439,158.7s-22.243,6.023-45.4-7.952c-20.528-12.385-34.742-6.1-34.742-6.1s6.366-17.73,23.906-15.565C117.734,131.4,116.928,156.457,155.439,158.7Z" transform="translate(-55.733 -95.277)" fill="#e5e4e4" opacity="0.3"/>
          <path id="Path_302" data-name="Path 302" d="M196.728,77.744s-19.879-4.3-29.987-20.024C157,42.572,144.342,33.707,129.4,37.749c0,0,9.147-17.495,27.337-11.889C176.173,31.882,169.469,66.455,196.728,77.744Z" transform="translate(-95.775 -18.285)" fill="#e5e4e4" opacity="0.3"/>
          <path id="Path_303" data-name="Path 303" d="M100.979,232.638s-25.05,10.533-52.594-3C12.915,212.275,0,244.214,0,244.214a78.486,78.486,0,0,1,38.848,1.643C59.714,252.166,84.14,245.961,100.979,232.638Z" transform="translate(0 -165.93)" fill="#d2451e"/>
          <path id="Path_304" data-name="Path 304" d="M153.089,143.834S129.91,150.3,105.9,133.457c-20.632-14.418-35.6-8.708-35.6-8.708s7.51-18.068,25.725-15.279C117.619,112.807,113.072,139.454,153.089,143.834Z" transform="translate(-52.032 -80.698)" fill="#316094"/>
          <path id="Path_305" data-name="Path 305" d="M199.178,59.513s-18.294-2.477-29.6-22.97C160.33,19.752,147.857,9.583,132.5,13.285c0,0,10.238-18.981,28.3-11.655C182.937,10.626,171.972,46.085,199.178,59.513Z" transform="translate(-98.07 0.051)" fill="#d2451e"/>
        </g>
      </g>
      <g id="Group_514" data-name="Group 514" transform="translate(111.503 40.139)">
        <path id="Path_306" data-name="Path 306" d="M449.446,189.405l-.052-11.993-5.795,9.777h-2.832L435,177.751v11.655h-5.9V166.8h5.249l7.925,13.036,7.718-13.036h5.249l.052,22.605Z" transform="translate(-429.1 -163.437)" fill="#316094"/>
        <path id="Path_307" data-name="Path 307" d="M560.813,195.886H548.133c.52,1.773,2.027,2.816,4.288,2.816a5.648,5.648,0,0,0,4.028-1.512l3.222,3.363c-1.663,1.877-4.132,2.842-7.432,2.842-6.21,0-10.238-3.833-10.238-9.073,0-5.267,4.08-9.021,9.589-9.021,5.145,0,9.329,3.285,9.329,9.073C560.917,194.817,560.865,195.39,560.813,195.886Zm-12.759-3.233H555.2a3.628,3.628,0,0,0-7.146,0Z" transform="translate(-512.663 -177.113)" fill="#316094"/>
        <path id="Path_308" data-name="Path 308" d="M640.413,195.886H627.733c.52,1.773,2.027,2.816,4.288,2.816a5.648,5.648,0,0,0,4.028-1.512l3.222,3.363c-1.663,1.877-4.132,2.842-7.432,2.842-6.211,0-10.238-3.833-10.238-9.073,0-5.267,4.08-9.021,9.589-9.021,5.145,0,9.329,3.285,9.329,9.073C640.491,194.817,640.439,195.39,640.413,195.886Zm-12.785-3.233h7.146a3.628,3.628,0,0,0-7.146,0Z" transform="translate(-571.578 -177.113)" fill="#316094"/>
        <path id="Path_309" data-name="Path 309" d="M717.285,199.232v4.589H701.2V200.2l8.081-9.334h-7.874V186.3h15.539v3.572l-8.081,9.334h8.419Z" transform="translate(-630.494 -177.852)" fill="#316094"/>
        <path id="Path_310" data-name="Path 310" d="M787.032,193.209v9.725h-5.691v-2.268c-.858,1.669-2.6,2.555-5.145,2.555-4.184,0-6.5-2.347-6.5-5.4,0-3.233,2.339-5.241,7.744-5.241h3.482c-.1-1.773-1.3-2.79-3.69-2.79a8.118,8.118,0,0,0-4.729,1.512l-2.053-4.172a14.6,14.6,0,0,1,7.692-2.034C783.784,185.152,787.032,187.655,787.032,193.209Zm-6.107,4.12v-1.512h-2.65c-1.975,0-2.677.7-2.677,1.773,0,1.043.832,1.773,2.287,1.773A3.027,3.027,0,0,0,780.926,197.328Z" transform="translate(-681.194 -176.965)" fill="#316094"/>
        <path id="Path_311" data-name="Path 311" d="M870.915,176.774c0,5.58-3.82,9.073-8.549,9.073a6.272,6.272,0,0,1-5.145-2.034v1.747H851.4V161.6h6.106v7.978a6.479,6.479,0,0,1,4.859-1.8C867.069,167.779,870.915,171.221,870.915,176.774Zm-6.185,0c0-2.659-1.611-4.146-3.664-4.146s-3.664,1.486-3.664,4.146c0,2.686,1.611,4.2,3.664,4.2S864.73,179.46,864.73,176.774Z" transform="translate(-741.664 -159.592)" fill="#316094"/>
        <path id="Path_312" data-name="Path 312" d="M981.974,185.025h-9.51l-1.767,4.38h-6.5l9.952-22.605h6.288l9.978,22.605h-6.626Zm-1.845-4.719-2.884-7.222-2.884,7.222Z" transform="translate(-825.153 -163.437)" fill="#316094"/>
        <path id="Path_313" data-name="Path 313" d="M1068.2,157.159c0-1.851,1.481-3.259,3.742-3.259s3.742,1.33,3.742,3.155c0,1.929-1.481,3.363-3.742,3.363S1068.2,159.01,1068.2,157.159Zm.676,5.215h6.107v17.495h-6.107Z" transform="translate(-902.129 -153.9)" fill="#316094"/>
        <path id="Path_314" data-name="Path 314" d="M1121.267,185.3v5.527c-.546-.052-.935-.1-1.377-.1-2.469,0-4.184,1.251-4.184,4.328v8.03H1109.6V185.587h5.821V187.7C1116.668,186.108,1118.695,185.3,1121.267,185.3Z" transform="translate(-932.77 -177.113)" fill="#316094"/>
      </g>
    </g>
    <g id="Group_516" data-name="Group 516" transform="translate(111.503 73.071)">
      <path id="Path_315" data-name="Path 315" d="M439.832,295.6l-.026-8.448-4.184,7.04h-.754l-4.184-6.988v8.4H429.1V284h1.351l4.807,8.161L440.014,284h1.351l.026,11.6h-1.559Z" transform="translate(-429.1 -283.061)" fill="#316094"/>
      <path id="Path_316" data-name="Path 316" d="M493.84,298.145v5.293h-1.507V302.29a3.213,3.213,0,0,1-2.884,1.252c-1.975,0-3.248-1.069-3.248-2.581,0-1.408.909-2.555,3.508-2.555h2.521v-.313c0-1.33-.78-2.112-2.339-2.112a4.467,4.467,0,0,0-2.78.939l-.65-1.2a5.8,5.8,0,0,1,3.612-1.121C492.488,294.573,493.84,295.746,493.84,298.145Zm-1.585,2.607v-1.225h-2.443c-1.559,0-2,.626-2,1.356,0,.886.728,1.434,1.923,1.434A2.538,2.538,0,0,0,492.255,300.752Z" transform="translate(-471.362 -290.896)" fill="#316094"/>
      <path id="Path_317" data-name="Path 317" d="M535.115,298.307v5.058H533.53v-4.876c0-1.721-.858-2.555-2.365-2.555a2.611,2.611,0,0,0-2.781,2.92v4.511H526.8v-8.787h1.507v1.33a3.769,3.769,0,0,1,3.144-1.408C533.634,294.5,535.115,295.725,535.115,298.307Z" transform="translate(-501.412 -290.824)" fill="#316094"/>
      <path id="Path_318" data-name="Path 318" d="M575.04,298.145v5.293h-1.507V302.29a3.214,3.214,0,0,1-2.884,1.252c-1.975,0-3.248-1.069-3.248-2.581,0-1.408.909-2.555,3.508-2.555h2.521v-.313c0-1.33-.78-2.112-2.339-2.112a4.467,4.467,0,0,0-2.78.939l-.65-1.2a5.8,5.8,0,0,1,3.612-1.121C573.688,294.573,575.04,295.746,575.04,298.145Zm-1.585,2.607v-1.225h-2.443c-1.559,0-2,.626-2,1.356,0,.886.728,1.434,1.923,1.434A2.515,2.515,0,0,0,573.455,300.752Z" transform="translate(-531.462 -290.896)" fill="#316094"/>
      <path id="Path_319" data-name="Path 319" d="M614.373,294.678v7.587c0,3.1-1.559,4.511-4.547,4.511a6.475,6.475,0,0,1-4.184-1.3l.754-1.225a5.282,5.282,0,0,0,3.378,1.147c2.053,0,3.014-.965,3.014-2.946v-.7a3.974,3.974,0,0,1-3.144,1.356,4.254,4.254,0,1,1,0-8.5,3.929,3.929,0,0,1,3.222,1.434v-1.356Zm-1.533,4.146a3.018,3.018,0,1,0-3.014,2.868A2.832,2.832,0,0,0,612.84,298.824Z" transform="translate(-559.44 -290.898)" fill="#316094"/>
      <path id="Path_320" data-name="Path 320" d="M651.1,281.443a1.05,1.05,0,0,1,1.065-1.043,1.013,1.013,0,0,1,1.065,1.017,1.04,1.04,0,0,1-1.065,1.069A1.019,1.019,0,0,1,651.1,281.443Zm.26,2.738h1.585v8.787H651.36Z" transform="translate(-593.413 -280.4)" fill="#316094"/>
      <path id="Path_321" data-name="Path 321" d="M678.115,298.307v5.058H676.53v-4.876c0-1.721-.857-2.555-2.365-2.555a2.611,2.611,0,0,0-2.78,2.92v4.511H669.8v-8.787h1.507v1.33a3.769,3.769,0,0,1,3.144-1.408C676.608,294.5,678.115,295.725,678.115,298.307Z" transform="translate(-607.254 -290.824)" fill="#316094"/>
      <path id="Path_322" data-name="Path 322" d="M719.373,294.678v7.587c0,3.1-1.559,4.511-4.547,4.511a6.475,6.475,0,0,1-4.184-1.3l.754-1.225a5.282,5.282,0,0,0,3.378,1.147c2.053,0,3.014-.965,3.014-2.946v-.7a3.974,3.974,0,0,1-3.144,1.356,4.254,4.254,0,1,1,0-8.5,3.929,3.929,0,0,1,3.222,1.434v-1.356Zm-1.559,4.146a3.018,3.018,0,1,0-3.014,2.868A2.8,2.8,0,0,0,717.814,298.824Z" transform="translate(-637.156 -290.898)" fill="#316094"/>
      <path id="Path_323" data-name="Path 323" d="M774.336,291.587V295.6H772.7v-4.041L768.1,284h1.767l3.69,6.1,3.716-6.1h1.637Z" transform="translate(-680.01 -283.061)" fill="#316094"/>
      <path id="Path_324" data-name="Path 324" d="M808.4,299.058a4.548,4.548,0,1,1,4.547,4.485A4.348,4.348,0,0,1,808.4,299.058Zm7.484,0a2.952,2.952,0,1,0-5.9,0,2.953,2.953,0,1,0,5.9,0Z" transform="translate(-709.838 -290.898)" fill="#316094"/>
      <path id="Path_325" data-name="Path 325" d="M859.737,294.9v8.787H858.23v-1.33a3.572,3.572,0,0,1-2.962,1.434c-2.261,0-3.768-1.252-3.768-3.833V294.9h1.585v4.876c0,1.721.858,2.581,2.365,2.581,1.637,0,2.7-1.017,2.7-2.92V294.9Z" transform="translate(-741.738 -291.119)" fill="#316094"/>
      <path id="Path_326" data-name="Path 326" d="M899.5,294.5v1.538a1.839,1.839,0,0,0-.364-.026c-1.689,0-2.754,1.043-2.754,2.972v4.38H894.8v-8.787h1.507v1.486A3.389,3.389,0,0,1,899.5,294.5Z" transform="translate(-773.787 -290.824)" fill="#316094"/>
      <path id="Path_327" data-name="Path 327" d="M936.45,285.534H932.5V284.1h9.563v1.434h-3.976v10.142H936.45Z" transform="translate(-801.69 -283.135)" fill="#316094"/>
      <path id="Path_328" data-name="Path 328" d="M979.1,294.5v1.538a1.838,1.838,0,0,0-.364-.026c-1.689,0-2.754,1.043-2.754,2.972v4.38H974.4v-8.787h1.507v1.486A3.39,3.39,0,0,1,979.1,294.5Z" transform="translate(-832.702 -290.824)" fill="#316094"/>
      <path id="Path_329" data-name="Path 329" d="M1004.84,298.145v5.293h-1.507V302.29a3.213,3.213,0,0,1-2.884,1.252c-1.975,0-3.248-1.069-3.248-2.581,0-1.408.91-2.555,3.508-2.555h2.521v-.313c0-1.33-.78-2.112-2.339-2.112a4.467,4.467,0,0,0-2.78.939l-.65-1.2a5.8,5.8,0,0,1,3.612-1.121C1003.489,294.573,1004.84,295.746,1004.84,298.145Zm-1.585,2.607v-1.225h-2.443c-1.559,0-2,.626-2,1.356,0,.886.728,1.434,1.923,1.434A2.515,2.515,0,0,0,1003.255,300.752Z" transform="translate(-849.578 -290.896)" fill="#316094"/>
      <path id="Path_330" data-name="Path 330" d="M1040.751,294.9l-3.82,8.787h-1.611l-3.82-8.787h1.663l3.014,7.04,3.066-7.04Z" transform="translate(-874.965 -291.119)" fill="#316094"/>
      <path id="Path_331" data-name="Path 331" d="M1077.479,299.506h-7.094a2.96,2.96,0,0,0,3.17,2.555,3.222,3.222,0,0,0,2.521-1.069l.883,1.017a4.761,4.761,0,0,1-8.159-3.051,4.28,4.28,0,0,1,4.392-4.458,4.219,4.219,0,0,1,4.313,4.511C1077.5,299.167,1077.479,299.349,1077.479,299.506Zm-7.12-1.147h5.613a2.728,2.728,0,0,0-2.807-2.529A2.782,2.782,0,0,0,1070.359,298.359Z" transform="translate(-902.572 -290.824)" fill="#316094"/>
      <path id="Path_332" data-name="Path 332" d="M1110.7,281.4h1.585v12.28H1110.7Z" transform="translate(-933.584 -281.139)" fill="#316094"/>
      <path id="Path_333" data-name="Path 333" d="M1124.2,302.526l.65-1.251a5.684,5.684,0,0,0,3.066.913c1.481,0,2.079-.443,2.079-1.2,0-1.982-5.535-.261-5.535-3.754,0-1.564,1.4-2.633,3.638-2.633a6.446,6.446,0,0,1,3.2.782l-.676,1.251a4.46,4.46,0,0,0-2.521-.7c-1.377,0-2.053.521-2.053,1.2,0,2.06,5.535.391,5.535,3.781,0,1.59-1.455,2.607-3.768,2.607A6.143,6.143,0,0,1,1124.2,302.526Z" transform="translate(-943.576 -290.898)" fill="#316094"/>
    </g>
  </g>
</svg>
